<svg width="23" height="24" viewBox="0 0 23 24" fill="none" xmlns="http://www.w3.org/2000/svg">
<g clip-path="url(#clip0_529_3969)">
<path d="M8.15757 22.2011V18.6338C8.15757 17.7231 8.90119 16.9849 9.8185 16.9849H13.1717C13.6122 16.9849 14.0347 17.1586 14.3462 17.4679C14.6576 17.7771 14.8326 18.1965 14.8326 18.6338V22.2011C14.8299 22.5797 14.9794 22.9437 15.2481 23.2124C15.5168 23.4811 15.8824 23.6322 16.2638 23.6322H18.5515C19.6199 23.635 20.6455 23.2155 21.402 22.4665C22.1585 21.7175 22.5837 20.7004 22.5837 19.6397V9.47689C22.5837 8.62009 22.2011 7.80737 21.539 7.25767L13.7567 1.0874C12.4029 0.00554445 10.4633 0.040475 9.14995 1.17036L1.54517 7.25767C0.851856 7.79117 0.43747 8.6063 0.416992 9.47689V19.6293C0.416992 21.8401 2.22227 23.6322 4.44919 23.6322H6.68466C7.47676 23.6322 8.12049 22.9978 8.12623 22.2115L8.15757 22.2011Z" fill="#EF7D00"/>
</g>
<defs>
<clipPath id="clip0_529_3969">
<rect width="23" height="24" fill="white"/>
</clipPath>
</defs>
</svg>
