<svg width="24" height="24" viewBox="0 0 24 24" fill="none" xmlns="http://www.w3.org/2000/svg">
<g clip-path="url(#clip0_314_6781)">
<path d="M0 10.5001C0 11.3297 0.670312 12.0001 1.5 12.0001C2.32969 12.0001 3 11.3297 3 10.5001C3 8.01568 5.01562 6.00006 7.5 6.00006H15V7.50006C15 8.10474 15.3656 8.65318 15.9281 8.88756C16.4906 9.12193 17.1328 8.99068 17.5641 8.56412L20.5641 5.56412C21.15 4.97818 21.15 4.02662 20.5641 3.44068L17.5641 0.440682C17.1328 0.00943194 16.4906 -0.117131 15.9281 0.117244C15.3656 0.351619 15 0.895369 15 1.50006V3.00006H7.5C3.35625 3.00006 0 6.35631 0 10.5001ZM24 13.5001C24 12.6704 23.3297 12.0001 22.5 12.0001C21.6703 12.0001 21 12.6704 21 13.5001C21 15.9844 18.9844 18.0001 16.5 18.0001H9V16.5001C9 15.8954 8.63437 15.3469 8.07187 15.1126C7.50937 14.8782 6.86719 15.0094 6.43594 15.436L3.43594 18.436C2.85 19.0219 2.85 19.9735 3.43594 20.5594L6.43594 23.5594C6.86719 23.9907 7.50937 24.1172 8.07187 23.8829C8.63437 23.6485 9 23.1047 9 22.4954V21.0001H16.5C20.6437 21.0001 24 17.6438 24 13.5001Z" fill="#EF7D00"/>
</g>
<defs>
<clipPath id="clip0_314_6781">
<rect width="24" height="24" fill="white"/>
</clipPath>
</defs>
</svg>
